<?xml version="1.0" encoding="utf-8"?> <!-- Generator: IcoMoon.io --> <!DOCTYPE svg PUBLIC "-//W3C//DTD SVG 1.1//EN" "http://www.w3.org/Graphics/SVG/1.1/DTD/svg11.dtd"> <svg width="32" height="32" viewBox="0 0 32 32" xmlns="http://www.w3.org/2000/svg" xmlns:xlink="http://www.w3.org/1999/xlink" fill="#000000"><g><path d="M 9.144,22.987l 9.84-4.032l 4.032-9.935l-9.934,3.939L 9.144,22.987z M 16.029,14.029c 1.104,0, 2,0.896, 2,2s-0.896,2-2,2s-2-0.896-2-2S 14.925,14.029, 16.029,14.029z M 16,0C 7.163,0,0,7.163,0,16 s 7.163,16, 16,16s 16-7.163, 16-16S 24.837,0, 16,0z M 16.112,28.021c-6.647,0-12.035-5.388-12.035-12.034S 9.465,3.952, 16.112,3.952 c 6.646,0, 12.034,5.389, 12.034,12.036S 22.759,28.021, 16.112,28.021z"></path></g></svg>