<svg xmlns="http://www.w3.org/2000/svg" xmlns:xlink="http://www.w3.org/1999/xlink" xmlns:a="http://ns.adobe.com/AdobeSVGViewerExtensions/3.0/" version="1.1" x="0px" y="0px" width="50px" height="50px" viewBox="0 -0.001 50 50" enable-background="new 0 -0.001 50 50" xml:space="preserve"><defs></defs><path d="M25 49.998c-13.785 0-25-11.215-25-25C0 11.2 11.2 0 25 0c13.785 0 25 11.2 25 25 C50 38.8 38.8 50 25 50 M25 1.6C12.098 1.6 1.6 12.1 1.6 24.998c0 12.9 10.5 23.4 23.4 23.4 c12.902 0 23.4-10.496 23.4-23.399C48.4 12.1 37.9 1.6 25 1.6 M9.876 35.494h30.248v1.562H9.876V35.494z M15.304 22.2 L15.304 22.211c-0.791 0-1.44-0.053-1.953-0.159v-0.743c0.22-0.09 0.671-0.215 1.354-0.378c0.203-0.049 0.344-0.15 0.421-0.305 s0.121-0.452 0.127-0.891c0.025-1.089 0.112-1.996 0.263-2.719c0.15-0.723 0.349-1.301 0.597-1.735 c0.249-0.433 0.585-0.828 1.007-1.188c0.456-0.41 0.97-0.703 1.543-0.882c0.572-0.182 1.123-0.271 1.653-0.271 c0.757 0 1.4 0.1 1.9 0.359c0.236 0.1 0.4 0.3 0.4 0.657c0 0.385-0.212 0.826-0.635 1.3 c-0.317-0.275-0.703-0.485-1.159-0.629c-0.455-0.143-0.898-0.213-1.33-0.213c-0.748 0-1.333 0.303-1.756 0.9 c-0.366 0.549-0.549 1.808-0.549 3.773v1.807c1.172 0 2.1 0 2.9 0.094v1.034c-0.905 0.103-1.879 0.152-2.928 0.2 c0 0.017-0.006 0.438-0.018 1.267c-0.012 0.827-0.025 1.73-0.037 2.709c-0.012 0.979-0.018 1.665-0.018 2.1 c0 0.5 0 0.9 0.1 1.17c0.042 0.2 0.1 0.4 0.2 0.52c0.195 0.2 0.9 0.3 2.1 0.416v0.877 c-1.397-0.03-2.415-0.048-3.048-0.048c-0.471 0-1.424 0.018-2.855 0.048v-0.877c0.058-0.008 0.143-0.018 0.257-0.026 c0.22-0.023 0.378-0.039 0.475-0.048c0.099-0.009 0.219-0.025 0.361-0.056c0.142-0.028 0.237-0.054 0.286-0.078 c0.05-0.025 0.112-0.065 0.189-0.123s0.124-0.119 0.14-0.183c0.018-0.066 0.038-0.153 0.066-0.265 c0.03-0.109 0.046-0.229 0.05-0.354c0.003-0.127 0.005-0.284 0.005-0.471c0-0.548-0.002-1.349-0.005-2.404 c-0.004-1.057-0.008-2.005-0.013-2.845C15.305 22.7 15.3 22.2 15.3 22.2 M22.323 30.1 c-0.858-0.984-1.286-2.271-1.286-3.86c0-1.803 0.472-3.233 1.415-4.295c0.942-1.06 2.129-1.59 3.561-1.59 c0.7 0 1.3 0.1 1.8 0.386c0.525 0.3 0.9 0.6 1.2 1.024c0.283 0.4 0.5 0.9 0.6 1.4 c0.137 0.5 0.2 1 0.2 1.538c0 0.243-0.063 0.43-0.193 0.561c-0.131 0.13-0.356 0.196-0.682 0.196h-6.296v0.223 c0 1.4 0.3 2.4 1 3.234c0.634 0.8 1.5 1.2 2.7 1.189c0.667 0 1.23-0.081 1.689-0.245 c0.459-0.161 0.961-0.42 1.506-0.777l0.523 0.81c-1.324 1.142-2.73 1.713-4.219 1.713C24.366 31.5 23.2 31 22.3 30.1 M23.732 22.248c-0.504 0.528-0.813 1.238-0.928 2.135l5.379-0.146c-0.057-0.918-0.312-1.612-0.769-2.08 c-0.454-0.467-1.041-0.701-1.756-0.701C24.877 21.5 24.2 21.7 23.7 22.2 M33.682 31.176c0.562 0 1.5 0 2.8 0 v-0.877c-0.605-0.05-1.021-0.1-1.252-0.152c-0.229-0.054-0.381-0.133-0.453-0.238c-0.066-0.081-0.107-0.196-0.125-0.342 c-0.015-0.147-0.023-0.46-0.023-0.939c0-1.325 0.004-3.787 0.012-7.386c0.008-3.598 0.012-6.134 0.012-7.605 c0-0.479-0.173-0.719-0.52-0.719c-0.622 0-1.588 0.442-2.895 1.329v0.549c0.846 0.1 1.3 0.4 1.5 0.8 c0.115 0.3 0.2 1.2 0.2 2.549c0 0.2 0 1.8 0 4.764c0.007 2.9 0 4.8 0 5.7 c0 0.699-0.066 1.127-0.195 1.28c-0.075 0.082-0.223 0.146-0.443 0.196c-0.221 0.049-0.618 0.105-1.191 0.171v0.877 C32.406 31.2 33.3 31.2 33.7 31.2"/></svg>